<?xml version="1.0" encoding="utf-8"?>
<!-- Generator: Adobe Illustrator 19.2.1, SVG Export Plug-In . SVG Version: 6.00 Build 0)  -->
<svg version="1.1" id="Layer_1" xmlns="http://www.w3.org/2000/svg" xmlns:xlink="http://www.w3.org/1999/xlink" x="0px" y="0px"
	 viewBox="0 0 100 100" style="enable-background:new 0 0 100 100;" xml:space="preserve">
<style type="text/css">
	.st0{fill:#FFFFFF;}
	.st1{fill-rule:evenodd;clip-rule:evenodd;fill:#5B5A5B;}
	.st2{fill:#5B5A5B;}
</style>
<g>
	<g>
		<path class="st1" d="M44.2,51c1.1-0.1,5.1-0.5,6.4,0.4c0.1,0.1,0.3,0.2,0.4,0.3l0.2,0.1c0,0.1-0.1,0.2-0.2,0.3l-0.1,0.2
			c-0.1,0.1-0.1,0.3-0.1,0.5c0,0.8-4.9,0.9-5.6,0.9c3.4,10.9,6.8,17.7,17.9,25.6c-15.5-3.2-19.9-13.7-23.3-25.1l-6.9,0.2
			c-1.6,5-5.5,11.3-5.3,16.6c0,0,0-0.1-0.1-0.1c-0.1-0.2-0.2-0.3-0.2-0.5c0,0,0-0.1,0-0.1c0,0,0,0,0,0c0,0,0-0.1,0-0.1c0,0,0,0,0,0
			c0,0,0-0.1,0-0.1l0,0c0,0,0-0.1,0-0.1c0,0,0,0,0,0c0,0,0-0.1,0-0.1c0,0,0,0,0,0c0,0,0-0.1,0-0.1c0,0,0,0,0,0c0,0,0-0.1,0-0.1
			c0,0,0,0,0,0c0,0,0-0.1,0-0.1c0,0,0,0,0,0c0,0,0-0.1,0-0.1c0-0.1,0-0.1,0-0.2c0,0,0-0.1,0-0.1c-0.1-0.7,0-1.5,0.1-2.2
			c0.8-5.3,2.7-7,3.9-12.2c-3.5,0-3.9-0.1-8.3,0.2c2.7-1.3,5.8-1.8,8.8-2.3c3-12,1.6-19.2,0.6-31c-0.5-5.9-0.7-9.6-0.7-11
			c-0.1-2.9,1.9-0.8,2.3-0.2c0.8,1.3,2.3,7,3.2,11.2C38.5,30.2,41.2,42.5,44.2,51z M33.5,52c1-5,1.3-8.4,1.7-9.8
			c0.7-2.6,3.8,8.4,4,9.3L33.5,52z"/>
		<path class="st1" d="M58.9,34.9c1.2,0.1,2.2-0.9,3.4-1c0.5,0.1,1.1,0,1.6-0.1c0.2,0.1,0.9,0.2,0.8,0.5c0.2,0.7-1.2,1.4-2,1.6
			l0.6-0.1c0.2,0.7-3,2.2-3.5,2.5c-0.6,0.2-1.3,0.5-1.9,0.7c-0.2,0.1-0.5,0.2-0.7,0.2c-1.9,0.8-3.8,1.9-5.6,2.8l0.6,1.2l0.5,1.1
			l2,4.1c0.4-0.2,0.9-0.4,1.3-0.5c1-0.4,3-0.7,4.1-0.9c0.3,0,0.7,0,1,0c0.1,0,0.1,0,0.3,0c0.2,0,0.5,0.1,0.7,0.3
			c0.2,0.2,0.5,0.4,0.6,0.7c0.1,0.4,0.1,0.3,0.2,0.6c0,0.1,0,0.4,0,0.5l0,0.1c-0.1,0.4,0,0.7-0.1,0.9l0,0.3l0,0.2
			c-0.1,0.3-0.4,0.8-0.7,0.9c-0.6,0.3-1.7,0-2.3-0.2c-1-0.2-1.9-0.4-2.9-0.5c-0.3,0-0.6-0.1-0.9-0.1c1.9,4,3.4,8.2,4.8,12.3
			c0.5,1.3,1,2.5,1.4,3.8l0.6,2l0.3,1.5l0.2,0.9c0.2,1.1,0.3,2,0.3,3.1c0,0.8,0,1.6-0.4,2.2c-0.1,0.2-0.2,0.5-0.5,0.5l-0.1,0.2
			c-0.1,0-0.2-0.1-0.3-0.2l0,0c-0.2-0.1-0.2-0.2-0.4-0.3l-0.2-0.1c-0.3,0-0.4,0.1-0.7-0.2l-0.2,0c-0.1,0-0.1-0.1-0.2-0.1l-0.3-0.5
			l-0.5-1c-0.3-0.6-0.5-1.1-0.7-1.8c-0.8-2.9-1.6-5.8-2.3-8.7l-0.2-0.9c-1-4.3-2.3-8.6-3.7-12.9l-0.2,0c0-0.1,0-0.3,0.1-0.4
			c-0.9-2.6-1.8-5.1-2.7-7.6c-0.4,0.1-0.5,0.2-0.9,0.2c-0.2,0-0.1,0.1-0.6,0.2c-0.5,0.1-1.4,0-1.9-0.2c-0.3-0.1-0.8-0.3-1-0.5
			c-0.2-0.2-0.4-0.4-0.5-0.6L45,41.8c-0.1-0.1-0.1-0.2-0.1-0.3l0-0.3c0-0.3,0-0.3-0.1-0.7l0-0.1c-0.1-0.3-0.2-0.5-0.2-0.8
			c0-0.2,0-0.1,0-0.3l-0.1-0.4c0-0.1,0.2-0.4,0.2-0.5v0l0,0l0.1-0.1l0.2-0.4c0.2-0.3,0.4-0.5,0.7-0.7c0.5-0.3,1.4-0.5,2-0.6
			l-0.1-0.2l0.2,0.2c0.7-0.2,1.5-0.3,2.2-0.5c2-0.4,4.1-1.1,6.2-1.1C57.1,34.8,58.2,34.8,58.9,34.9z M68.3,36.6
			c0.5-0.1,1-0.1,1.4-0.1c0.7,0.1,1.4,0.3,2,0.8c1.1,0.9,1.3,2.3,1.3,3.6c0,0.9-0.5,2.5-0.5,2.4c-0.4,0.8-1.2,1.5-1.6,2.2
			c-0.7,0.5-1.8,0.6-2.4,1l-1,0c-1.1,0-2.1-0.5-2.8-1.4l-0.2-0.3c-0.2-0.2-0.4-0.5-0.5-0.8c-0.2-0.5-0.2-1.4,0.1-1.9
			c0.1-0.2,0.3-0.4,0.4-0.5c0.2-0.1,0.4-0.2,0.6-0.3l0.1-0.1c0.1-0.1,0.7-0.1,0.8-0.2l0.5-0.1c0.3-0.1,0.4-0.2,0.7-0.2l0.3-0.1h0
			l0,0h0l0.2,0c0-0.1-0.1-0.1-0.3-0.2c0.3,0,0.7,0,1,0.2l0.3-0.6c0-0.1,0.1-0.1,0.2-0.1c0,0,0.2,0.2,0.2,0.1c0.1-0.2-0.9-0.5-1-0.6
			c-0.6-0.1-1.2-0.4-1.8-0.4c-0.4,0-0.7,0-1.1,0.1c-0.3,0-0.7,0-1,0.1c0.1-0.9,0.8-1.7,1.6-2.1C66.7,36.9,67.5,36.7,68.3,36.6z
			 M67.7,48.9c2.8,1,4.2,5.4,5.2,7.8c0.4,1,0.7,2,1,3c0.5,1.8,1.1,3.6,2,5.2l0.3,0.6l0.5,1.1c0.4,0.3,0.5,0.7,0.7,1.2l0.2,0.6
			c0.1,0.3,0.2,0.6,0.1,0.9c0,0.2,0,0.4-0.1,0.6l-0.1,0.3l-0.2,0.2l-0.2,0.1l-0.2,0.2c-0.2,0.1-0.1,0.1-0.3,0.3
			c-0.3,0.3-0.3,0.5-0.6,0.6l-0.1,0.2l-0.2,0.1l-0.1,0.1c0,0-0.4,0-0.5,0c-0.3,0-0.4,0-0.7-0.1l-0.6-0.1c-0.3-0.1-0.6-0.3-0.8-0.5
			c-1.5-1.3-2.5-3.9-2.8-5.9c-0.2-1.4-0.4-2.8-0.5-4.3c-0.3-3.6-0.3-7.4-1.6-10.8C67.8,49.7,67.7,49.3,67.7,48.9z M73.7,47.7
			c1.8,2.4,3.4,5,5,7.5c1.3,2.2,2.4,4.4,3.5,6.6c0.2-1.9,0.5-3.8,1.1-5.7c0.1-0.2,0.1-0.4,0.2-0.6c1-2.5,2.6-4.8,5.2-6.3
			c1.4-0.8,2.9-1.3,4.6-1.5c0.3,0,0.6-0.1,0.9-0.1c1-0.1,2.6-0.1,3.5,0.4c0.2,0.2,0.4,0.4,0.7,0.6c-0.4,0.3-0.8,0.6-1.1,0.9
			c-0.1,0.4-0.2,0.7-0.3,1.1c-0.8,0.3-1.6,0.7-2.4,1.1c-0.5,0.3-1,0.5-1.5,0.8c-0.3,0.2-0.6,0.3-0.9,0.5c-1.4,1-2.3,2.3-3,3.7
			c-0.7,1.6-1.2,3.3-1.5,5c-0.5,2.6-0.7,5.3-1.1,7.9l-0.1,0.6c0.1,0.1,0.1,0.2,0.2,0.3c0,0,0.1,0.2,0.1,0.1
			c-0.1-0.1-0.2-0.2-0.2-0.2c-0.1,0.4-0.1,0.9-0.2,1.3c0,0.2-0.1,0.5-0.2,0.7c-0.1,0.2-0.2,0.4-0.3,0.5c-0.1,0.1-0.3,0.3-0.5,0.4
			c-0.3,0.1-0.5,0.2-0.8,0.2c-0.3,0-0.5,0-0.7-0.1c-0.1-0.1-0.3-0.1-0.4-0.2c-0.1-0.1-0.2-0.2-0.3-0.4c-0.1-0.2-0.2-0.4-0.3-0.7
			c-0.2-0.4-0.3-0.9-0.5-1.3c-0.1,0.2-0.3,0.4-0.3,0.6c-0.1,0.1,0,0.1,0,0c0.1-0.5,0.1-0.9,0.1-1.4c-1.5-6.4-4.1-12.6-6.8-18.6
			C74.6,50.2,74.2,48.9,73.7,47.7z M8.6,28.6c3.1-1.4,4.8-1.4,8.1-0.7c-2.5,0.4-4.6,1-6.9,2.5c-0.9,0.6-1.6,1.2-2.3,2.1
			c-1.1,1.5-2.2,4-1.3,5.8c0.6,1.2,2.5,2.5,3.8,2.9c5.8,1.9,11.2,4.5,14.4,10c1.2,2.1,1.9,4.5,1.7,7c-0.3,4.7-3.3,8.9-7.2,11.4
			c-1,0.6-2,1.2-3.2,1.6l-1,0.4l-1.1,0.5c-2.5,0.9-5.4,0.9-8,0.2c-0.3-0.1-1.1-0.3-1.3-0.5c-0.7-0.3-1.4-0.7-1.9-1.3
			c-0.2-0.3-0.7-0.8-0.6-1.2L1.6,69c0.1-0.1,0.2-0.2,0.3-0.2l0.3,0c0.2-0.1,0.4-0.2,0.6-0.2l0.2-0.1c0.2-0.2,0.3-0.4,0.4-0.6
			c0.1-0.3,0.3-0.4,0.6-0.4l0.1-0.2C4.4,67,4.5,67,4.5,67l0-0.1l0.7-0.1L6,66.7c0.9-0.1,0.7-0.1,1.7-0.3L9.3,66
			c0.8-0.2,1.6-0.4,2.3-0.6c1.4-0.4,2.7-1,4-1.8c2-1.2,3.8-3.1,4.3-5.5c0.3-1.3,0-2.6-0.5-3.7c-0.9-2-2.4-3.6-4-4.9
			c-2.6-2.3-4.8-3.4-7.9-4.8c-3.2-1.5-5.3-4.4-5-8C2.8,33.3,5.6,30.1,8.6,28.6z"/>
	</g>
</g>
<g>
	<path class="st2" d="M4.4,92.8v-6.4h2.4c0.4,0,0.8,0,1,0.1c0.3,0.1,0.6,0.2,0.8,0.3C8.9,86.8,9,87,9.2,87.3s0.2,0.6,0.2,0.9
		c0,0.5-0.2,1-0.5,1.4c-0.3,0.4-1,0.6-1.9,0.6H5.3v2.6H4.4z M5.3,89.4H7c0.6,0,0.9-0.1,1.2-0.3c0.2-0.2,0.3-0.5,0.3-0.9
		c0-0.3-0.1-0.5-0.2-0.7c-0.1-0.2-0.3-0.3-0.5-0.4c-0.1,0-0.4-0.1-0.8-0.1H5.3V89.4z"/>
	<path class="st2" d="M13.5,91.2l0.8,0.1c-0.1,0.5-0.4,0.8-0.7,1.1s-0.8,0.4-1.3,0.4c-0.7,0-1.2-0.2-1.6-0.6c-0.4-0.4-0.6-1-0.6-1.8
		c0-0.8,0.2-1.4,0.6-1.8s0.9-0.7,1.6-0.7c0.6,0,1.1,0.2,1.5,0.6s0.6,1,0.6,1.8c0,0,0,0.1,0,0.2h-3.5c0,0.5,0.2,0.9,0.4,1.2
		c0.3,0.3,0.6,0.4,1,0.4c0.3,0,0.5-0.1,0.7-0.2S13.4,91.6,13.5,91.2z M10.9,90h2.6c0-0.4-0.1-0.7-0.3-0.9c-0.3-0.3-0.6-0.5-1-0.5
		c-0.4,0-0.7,0.1-0.9,0.4C11.1,89.2,11,89.6,10.9,90z"/>
	<path class="st2" d="M15.3,92.8v-4.7h0.7v0.7c0.2-0.3,0.3-0.5,0.5-0.7c0.2-0.1,0.3-0.2,0.5-0.2c0.3,0,0.5,0.1,0.8,0.3L17.6,89
		c-0.2-0.1-0.4-0.2-0.6-0.2c-0.2,0-0.3,0.1-0.5,0.2c-0.1,0.1-0.2,0.2-0.3,0.4c-0.1,0.3-0.1,0.6-0.1,0.9v2.4H15.3z"/>
	<path class="st2" d="M18.5,92.8v-4.1h-0.7v-0.6h0.7v-0.5c0-0.3,0-0.5,0.1-0.7c0.1-0.2,0.2-0.4,0.4-0.5c0.2-0.1,0.5-0.2,0.8-0.2
		c0.2,0,0.5,0,0.7,0.1L20.4,87c-0.2,0-0.3,0-0.5,0c-0.2,0-0.4,0.1-0.5,0.2c-0.1,0.1-0.1,0.3-0.1,0.6v0.4h0.9v0.6h-0.9v4.1H18.5z"/>
	<path class="st2" d="M23.9,92.8v-0.7c-0.4,0.5-0.9,0.8-1.5,0.8c-0.3,0-0.5-0.1-0.8-0.2s-0.4-0.2-0.5-0.4c-0.1-0.2-0.2-0.4-0.2-0.6
		c0-0.2,0-0.4,0-0.7v-2.9h0.8v2.6c0,0.4,0,0.7,0,0.8c0,0.2,0.2,0.4,0.3,0.5c0.2,0.1,0.4,0.2,0.6,0.2s0.5-0.1,0.7-0.2
		c0.2-0.1,0.4-0.3,0.4-0.5c0.1-0.2,0.1-0.5,0.1-0.9v-2.5h0.8v4.7H23.9z"/>
	<path class="st2" d="M25.9,92.8v-4.7h0.7v0.7c0.1-0.2,0.3-0.4,0.6-0.6C27.4,88,27.7,88,28,88c0.3,0,0.6,0.1,0.9,0.2
		c0.2,0.1,0.4,0.3,0.5,0.6c0.4-0.5,0.8-0.8,1.4-0.8c0.5,0,0.8,0.1,1.1,0.4c0.2,0.3,0.4,0.7,0.4,1.2v3.2h-0.8v-2.9
		c0-0.3,0-0.5-0.1-0.7c-0.1-0.1-0.1-0.3-0.3-0.3s-0.3-0.1-0.5-0.1c-0.3,0-0.6,0.1-0.8,0.3c-0.2,0.2-0.3,0.6-0.3,1v2.7h-0.8v-3
		c0-0.4-0.1-0.6-0.2-0.8s-0.3-0.3-0.6-0.3c-0.2,0-0.4,0.1-0.6,0.2c-0.2,0.1-0.3,0.3-0.4,0.5s-0.1,0.6-0.1,1v2.4H25.9z"/>
	<path class="st2" d="M36.5,91.2l0.8,0.1c-0.1,0.5-0.4,0.8-0.7,1.1s-0.8,0.4-1.3,0.4c-0.7,0-1.2-0.2-1.6-0.6c-0.4-0.4-0.6-1-0.6-1.8
		c0-0.8,0.2-1.4,0.6-1.8s0.9-0.7,1.6-0.7c0.6,0,1.1,0.2,1.5,0.6s0.6,1,0.6,1.8c0,0,0,0.1,0,0.2h-3.5c0,0.5,0.2,0.9,0.4,1.2
		c0.3,0.3,0.6,0.4,1,0.4c0.3,0,0.5-0.1,0.7-0.2S36.4,91.6,36.5,91.2z M33.9,90h2.6c0-0.4-0.1-0.7-0.3-0.9c-0.3-0.3-0.6-0.5-1-0.5
		c-0.4,0-0.7,0.1-0.9,0.4C34.1,89.2,34,89.6,33.9,90z"/>
	<path class="st2" d="M38,91.4l0.8-0.1c0,0.3,0.2,0.6,0.4,0.7c0.2,0.2,0.5,0.3,0.8,0.3c0.4,0,0.6-0.1,0.8-0.2
		c0.2-0.1,0.3-0.3,0.3-0.5c0-0.2-0.1-0.3-0.2-0.4c-0.1-0.1-0.4-0.2-0.8-0.3c-0.6-0.1-1-0.3-1.2-0.4c-0.2-0.1-0.4-0.3-0.5-0.4
		c-0.1-0.2-0.2-0.4-0.2-0.6c0-0.2,0-0.4,0.1-0.6c0.1-0.2,0.2-0.3,0.4-0.4c0.1-0.1,0.3-0.2,0.5-0.2c0.2-0.1,0.4-0.1,0.7-0.1
		c0.4,0,0.7,0.1,1,0.2c0.3,0.1,0.5,0.2,0.6,0.4c0.1,0.2,0.2,0.4,0.3,0.7L41,89.4c0-0.2-0.1-0.4-0.3-0.6c-0.2-0.1-0.4-0.2-0.7-0.2
		c-0.4,0-0.6,0.1-0.8,0.2s-0.2,0.3-0.2,0.4c0,0.1,0,0.2,0.1,0.3c0.1,0.1,0.2,0.2,0.3,0.2c0.1,0,0.3,0.1,0.7,0.2
		c0.6,0.1,0.9,0.3,1.2,0.4c0.2,0.1,0.4,0.2,0.5,0.4s0.2,0.4,0.2,0.7c0,0.3-0.1,0.5-0.2,0.7c-0.2,0.2-0.4,0.4-0.7,0.5
		c-0.3,0.1-0.6,0.2-1,0.2c-0.6,0-1.1-0.1-1.4-0.4C38.3,92.2,38.1,91.9,38,91.4z"/>
	<path class="st2" d="M49,92c-0.3,0.3-0.5,0.5-0.9,0.7c-0.3,0.1-0.6,0.2-1,0.2c-0.7,0-1.2-0.2-1.6-0.7c-0.3-0.4-0.5-0.8-0.5-1.2
		c0-0.4,0.1-0.8,0.4-1.1c0.3-0.3,0.6-0.6,1.1-0.8c-0.3-0.3-0.5-0.6-0.6-0.8C46,88,46,87.8,46,87.6c0-0.4,0.2-0.7,0.5-1
		c0.3-0.3,0.7-0.4,1.1-0.4c0.4,0,0.8,0.1,1.1,0.4c0.3,0.3,0.4,0.6,0.4,1c0,0.6-0.4,1.1-1.2,1.6l1.2,1.5c0.1-0.3,0.2-0.6,0.3-0.9
		l0.8,0.2c-0.1,0.6-0.3,1-0.6,1.4c0.3,0.4,0.6,0.7,1,1L50,92.9C49.7,92.7,49.4,92.4,49,92z M48.5,91.4l-1.5-1.8
		c-0.4,0.3-0.7,0.5-0.9,0.7c-0.1,0.2-0.2,0.4-0.2,0.6c0,0.3,0.1,0.5,0.3,0.8s0.5,0.4,0.9,0.4c0.2,0,0.5-0.1,0.7-0.2
		C48.2,91.8,48.4,91.6,48.5,91.4z M47.4,88.6c0.3-0.2,0.6-0.4,0.7-0.5c0.1-0.2,0.2-0.3,0.2-0.5c0-0.2-0.1-0.4-0.2-0.5
		c-0.1-0.1-0.3-0.2-0.5-0.2c-0.2,0-0.4,0.1-0.5,0.2c-0.1,0.1-0.2,0.3-0.2,0.5c0,0.1,0,0.2,0.1,0.3c0.1,0.1,0.1,0.2,0.2,0.3
		L47.4,88.6z"/>
	<path class="st2" d="M58.6,90.5l0.9,0.2c-0.2,0.7-0.5,1.2-1,1.6c-0.5,0.4-1,0.6-1.7,0.6c-0.7,0-1.3-0.1-1.7-0.4
		c-0.4-0.3-0.8-0.7-1-1.2c-0.2-0.5-0.3-1.1-0.3-1.7c0-0.7,0.1-1.3,0.4-1.8c0.3-0.5,0.6-0.9,1.1-1.1c0.5-0.3,1-0.4,1.6-0.4
		c0.6,0,1.2,0.2,1.6,0.5c0.4,0.3,0.7,0.8,0.9,1.4l-0.8,0.2c-0.1-0.5-0.4-0.8-0.7-1s-0.6-0.3-1.1-0.3c-0.5,0-0.9,0.1-1.2,0.4
		c-0.3,0.2-0.6,0.6-0.7,1c-0.1,0.4-0.2,0.8-0.2,1.2c0,0.5,0.1,1,0.2,1.4c0.2,0.4,0.4,0.7,0.7,0.9s0.7,0.3,1.1,0.3
		c0.5,0,0.9-0.1,1.2-0.4C58.2,91.4,58.4,91,58.6,90.5z"/>
	<path class="st2" d="M60.1,90.4c0-0.9,0.2-1.5,0.7-1.9c0.4-0.3,0.9-0.5,1.5-0.5c0.6,0,1.2,0.2,1.6,0.6c0.4,0.4,0.6,1,0.6,1.7
		c0,0.6-0.1,1.1-0.3,1.4c-0.2,0.3-0.4,0.6-0.8,0.8c-0.3,0.2-0.7,0.3-1.1,0.3c-0.7,0-1.2-0.2-1.6-0.6C60.3,91.8,60.1,91.2,60.1,90.4z
		 M60.9,90.4c0,0.6,0.1,1,0.4,1.3c0.3,0.3,0.6,0.4,1,0.4c0.4,0,0.7-0.1,1-0.4s0.4-0.8,0.4-1.4c0-0.6-0.1-1-0.4-1.3
		c-0.3-0.3-0.6-0.4-1-0.4c-0.4,0-0.7,0.1-1,0.4S60.9,89.8,60.9,90.4z"/>
	<path class="st2" d="M65,91.4l0.8-0.1c0,0.3,0.2,0.6,0.4,0.7c0.2,0.2,0.5,0.3,0.8,0.3c0.4,0,0.6-0.1,0.8-0.2
		c0.2-0.1,0.3-0.3,0.3-0.5c0-0.2-0.1-0.3-0.2-0.4c-0.1-0.1-0.4-0.2-0.8-0.3c-0.6-0.1-1-0.3-1.2-0.4c-0.2-0.1-0.4-0.3-0.5-0.4
		c-0.1-0.2-0.2-0.4-0.2-0.6c0-0.2,0-0.4,0.1-0.6c0.1-0.2,0.2-0.3,0.4-0.4c0.1-0.1,0.3-0.2,0.5-0.2c0.2-0.1,0.4-0.1,0.7-0.1
		c0.4,0,0.7,0.1,1,0.2c0.3,0.1,0.5,0.2,0.6,0.4c0.1,0.2,0.2,0.4,0.3,0.7L68,89.4c0-0.2-0.1-0.4-0.3-0.6c-0.2-0.1-0.4-0.2-0.7-0.2
		c-0.4,0-0.6,0.1-0.8,0.2s-0.2,0.3-0.2,0.4c0,0.1,0,0.2,0.1,0.3c0.1,0.1,0.2,0.2,0.3,0.2c0.1,0,0.3,0.1,0.7,0.2
		c0.6,0.1,1,0.3,1.2,0.4c0.2,0.1,0.4,0.2,0.5,0.4s0.2,0.4,0.2,0.7c0,0.3-0.1,0.5-0.2,0.7c-0.2,0.2-0.4,0.4-0.7,0.5
		c-0.3,0.1-0.6,0.2-1,0.2c-0.6,0-1.1-0.1-1.4-0.4C65.3,92.2,65.1,91.9,65,91.4z"/>
	<path class="st2" d="M69.9,92.8v-4.7h0.7v0.7c0.1-0.2,0.3-0.4,0.6-0.6C71.4,88,71.7,88,72,88c0.3,0,0.6,0.1,0.9,0.2
		c0.2,0.1,0.4,0.3,0.5,0.6c0.4-0.5,0.8-0.8,1.4-0.8c0.5,0,0.8,0.1,1.1,0.4c0.2,0.3,0.4,0.7,0.4,1.2v3.2h-0.8v-2.9
		c0-0.3,0-0.5-0.1-0.7c-0.1-0.1-0.1-0.3-0.3-0.3s-0.3-0.1-0.5-0.1c-0.3,0-0.6,0.1-0.8,0.3c-0.2,0.2-0.3,0.6-0.3,1v2.7h-0.8v-3
		c0-0.4-0.1-0.6-0.2-0.8s-0.3-0.3-0.6-0.3c-0.2,0-0.4,0.1-0.6,0.2c-0.2,0.1-0.3,0.3-0.4,0.5s-0.1,0.6-0.1,1v2.4H69.9z"/>
	<path class="st2" d="M80.6,91.2l0.8,0.1c-0.1,0.5-0.4,0.8-0.7,1.1s-0.8,0.4-1.3,0.4c-0.7,0-1.2-0.2-1.6-0.6c-0.4-0.4-0.6-1-0.6-1.8
		c0-0.8,0.2-1.4,0.6-1.8s0.9-0.7,1.6-0.7c0.6,0,1.1,0.2,1.5,0.6c0.4,0.4,0.6,1,0.6,1.8c0,0,0,0.1,0,0.2h-3.5c0,0.5,0.2,0.9,0.4,1.2
		c0.3,0.3,0.6,0.4,1,0.4c0.3,0,0.5-0.1,0.7-0.2C80.3,91.8,80.4,91.6,80.6,91.2z M78,90h2.6c0-0.4-0.1-0.7-0.3-0.9
		c-0.3-0.3-0.6-0.5-1-0.5c-0.4,0-0.7,0.1-0.9,0.4C78.1,89.2,78,89.6,78,90z"/>
	<path class="st2" d="M84.1,92l0.1,0.7c-0.2,0-0.4,0.1-0.6,0.1c-0.3,0-0.5,0-0.7-0.1c-0.2-0.1-0.3-0.2-0.3-0.4
		c-0.1-0.1-0.1-0.5-0.1-0.9v-2.7h-0.6v-0.6h0.6v-1.2l0.8-0.5v1.6h0.8v0.6h-0.8v2.7c0,0.2,0,0.4,0,0.4c0,0.1,0.1,0.1,0.1,0.2
		c0.1,0,0.2,0.1,0.3,0.1C83.8,92.1,84,92.1,84.1,92z"/>
	<path class="st2" d="M84.9,87.2v-0.9h0.8v0.9H84.9z M84.9,92.8v-4.7h0.8v4.7H84.9z"/>
	<path class="st2" d="M89.9,91l0.8,0.1c-0.1,0.5-0.3,1-0.7,1.3c-0.3,0.3-0.8,0.5-1.3,0.5c-0.6,0-1.2-0.2-1.5-0.6
		c-0.4-0.4-0.6-1-0.6-1.8c0-0.5,0.1-0.9,0.3-1.3c0.2-0.4,0.4-0.7,0.8-0.9c0.3-0.2,0.7-0.3,1.1-0.3c0.5,0,0.9,0.1,1.2,0.4
		c0.3,0.3,0.5,0.6,0.6,1.1l-0.8,0.1c-0.1-0.3-0.2-0.5-0.4-0.7c-0.2-0.2-0.4-0.2-0.7-0.2c-0.4,0-0.7,0.1-1,0.4
		c-0.2,0.3-0.4,0.7-0.4,1.4c0,0.6,0.1,1.1,0.4,1.4c0.2,0.3,0.6,0.4,0.9,0.4c0.3,0,0.6-0.1,0.8-0.3S89.9,91.4,89.9,91z"/>
	<path class="st2" d="M91.1,91.4l0.8-0.1c0,0.3,0.2,0.6,0.4,0.7c0.2,0.2,0.5,0.3,0.8,0.3c0.4,0,0.6-0.1,0.8-0.2
		c0.2-0.1,0.3-0.3,0.3-0.5c0-0.2-0.1-0.3-0.2-0.4c-0.1-0.1-0.4-0.2-0.8-0.3c-0.6-0.1-1-0.3-1.2-0.4c-0.2-0.1-0.4-0.3-0.5-0.4
		c-0.1-0.2-0.2-0.4-0.2-0.6c0-0.2,0-0.4,0.1-0.6c0.1-0.2,0.2-0.3,0.4-0.4c0.1-0.1,0.3-0.2,0.5-0.2c0.2-0.1,0.4-0.1,0.7-0.1
		c0.4,0,0.7,0.1,1,0.2c0.3,0.1,0.5,0.2,0.6,0.4c0.1,0.2,0.2,0.4,0.3,0.7L94,89.4c0-0.2-0.1-0.4-0.3-0.6c-0.2-0.1-0.4-0.2-0.7-0.2
		c-0.4,0-0.6,0.1-0.8,0.2s-0.2,0.3-0.2,0.4c0,0.1,0,0.2,0.1,0.3c0.1,0.1,0.2,0.2,0.3,0.2c0.1,0,0.3,0.1,0.7,0.2
		c0.6,0.1,1,0.3,1.2,0.4c0.2,0.1,0.4,0.2,0.5,0.4s0.2,0.4,0.2,0.7c0,0.3-0.1,0.5-0.2,0.7c-0.2,0.2-0.4,0.4-0.7,0.5
		c-0.3,0.1-0.6,0.2-1,0.2c-0.6,0-1.1-0.1-1.4-0.4C91.3,92.2,91.1,91.9,91.1,91.4z"/>
</g>
</svg>
