<svg version="1.1" id="Layer_1" xmlns="http://www.w3.org/2000/svg" xmlns:xlink="http://www.w3.org/1999/xlink" x="0px" y="0px"
	 viewBox="0 0 200 200" style="enable-background:new 0 0 200 200;" xml:space="preserve">
<style type="text/css">
	.st0{fill-rule:evenodd;clip-rule:evenodd;fill:#231F20;}
	.st1{fill:#E3382A;}
</style>
<g>
	<path class="st0" d="M85.1,112.4c2.1-0.2,9.5-0.9,11.8,0.7c0.2,0.2,0.6,0.3,0.7,0.6l0.3,0.2c0,0.3-0.2,0.3-0.3,0.6l-0.3,0.3
		c-0.3,0.2-0.2,0.6-0.2,0.9c0,1.4-9.1,1.6-10.4,1.6c6.4,20.2,12.7,32.9,33.4,47.6c-28.9-6-37.1-25.5-43.3-46.7L64,118.5
		c-2.9,9.2-10.2,21-9.9,30.9c0-0.1-0.1-0.2-0.1-0.2c-0.2-0.3-0.3-0.6-0.4-1c0-0.1,0-0.1-0.1-0.2c0,0,0,0,0,0c0-0.1-0.1-0.2-0.1-0.2
		c0,0,0,0,0,0c0-0.1,0-0.1-0.1-0.2l0,0c0-0.1,0-0.1-0.1-0.2c0,0,0,0,0,0c0-0.1,0-0.1-0.1-0.2c0,0,0,0,0,0c0-0.1,0-0.1,0-0.2
		c0,0,0,0,0,0c0-0.1,0-0.1,0-0.2c0,0,0,0,0,0c0-0.1,0-0.1,0-0.2c0,0,0,0,0,0c0-0.1,0-0.1,0-0.2c0-0.1,0-0.2,0-0.3c0,0,0-0.1,0-0.2
		c-0.2-1.4-0.1-2.7,0.1-4.1c1.5-9.8,5-13,7.3-22.8c-6.5,0-7.3-0.2-15.5,0.3c5.1-2.4,10.7-3.4,16.4-4.2c5.7-22.3,3-35.8,1.1-57.6
		c-1-10.9-1.2-18-1.3-20.4c-0.2-5.3,3.4-1.5,4.2-0.4c1.6,2.3,4.2,13.1,5.9,20.9C74.5,73.7,79.5,96.5,85.1,112.4z M65.1,114.3
		c1.8-9.2,2.5-15.7,3.2-18.3c1.2-4.8,7.1,15.7,7.4,17.3L65.1,114.3z"/>
	<path class="st1" d="M138.4,106.8c0.8-1.4,2.2-2.6,3-4.1c0,0,0.8-2.9,0.9-4.5c0.1-2.5-0.3-5-2.4-6.7c-1.1-0.9-2.4-1.3-3.8-1.4
		c-0.9-0.1-1.8,0-2.7,0.2c-1.4,0.2-2.9,0.5-4.2,1.2c-1.6,0.8-2.7,2.2-3,4c0.6-0.2,1.3-0.2,1.9-0.2c0.6-0.2,1.3-0.3,2-0.3
		c1.2,0.1,2.3,0.5,3.4,0.8c0.2,0.1,1.9,0.7,1.8,1.1c-0.1,0.2-0.4-0.1-0.5-0.2c-0.2-0.2-0.2-0.1-0.3,0.1l-0.6,1.2
		c-0.6-0.2-1.2-0.3-1.9-0.3c0.4,0.1,0.6,0.2,0.6,0.3l-0.5,0.1h-0.1l-0.1,0h0l-0.6,0.1c-0.5,0-0.8,0.2-1.4,0.3l-0.9,0.2
		c-0.3,0.1-1.3,0.2-1.5,0.3l-0.2,0.1c-0.4,0.2-0.7,0.4-1.1,0.6c-0.3,0.2-0.6,0.6-0.8,0.9c-0.5,0.9-0.4,2.6-0.1,3.5
		c0.2,0.6,0.5,1,0.9,1.4l0.4,0.6c1.2,1.7,3.1,2.5,5.2,2.6l1.9,0C135,107.9,137,107.7,138.4,106.8z"/>
	<path class="st1" d="M51.8,117.5c-5.9-10.3-15.9-15.1-26.8-18.7c-2.3-0.8-6-3.2-7.1-5.5c-1.6-3.3,0.3-8,2.4-10.7
		c1.3-1.6,2.6-2.7,4.3-3.8c4.1-2.8,8-3.9,12.8-4.7c-6.1-1.2-9.3-1.3-15,1.4c-5.6,2.7-10.7,8.8-11.3,15.1c-0.2,2.1,0.1,4.1,0.7,5.9
		c4,6.5,14,9.4,20.2,12.5c8.3,4.2,16.2,12.5,15.8,22.4c-0.4,8.9-8,14.6-15.7,17.4c-3.8,1.4-7.7,1.9-11.7,2.2c-3,0.2-6.9,0-9.9,1.1
		c0.2,0.5,0.4,1,0.7,1.5c0.9,1,2.1,1.7,3.3,2.2c0.4,0.3,1.8,0.7,2.4,0.9c4.8,1.3,10.3,1.3,15-0.3l2-0.8l1.8-0.7
		c2.1-0.8,4-1.9,5.9-3.1c7.2-4.7,12.8-12.5,13.4-21.2C55.2,125.9,54,121.4,51.8,117.5z"/>
	<path class="st1" d="M98.7,94.3c-3.2,1-6.8,2.2-7.9,5.6c-0.1,0.2-0.1,0.4-0.2,0.6c0.2,0.3,0.4,0.5,0.7,0.8c0.4,0.4,1.2,0.8,1.8,0.9
		c1,0.3,2.6,0.5,3.5,0.3c0.9-0.2,0.9-0.4,1.2-0.4c0.6-0.1,0.9-0.1,1.6-0.4c1.8,4.7,3.5,9.4,5.1,14.2c-0.1,0.2-0.1,0.4-0.1,0.7l0.4,0
		c2.6,7.9,4.9,15.9,6.8,23.9l0.4,1.6c1.4,5.4,2.7,10.9,4.2,16.2c0.3,1.2,0.7,2.2,1.2,3.3l0.9,1.8l0.5,0.9c0.3,0,0.1,0.1,0.4,0.2
		l0.3,0c0.4,0.7,0.6,0.3,1.2,0.4l0.5,0.1c0.3,0.2,0.4,0.5,0.7,0.6l0.1,0.1c0.2,0.2,0.3,0.3,0.6,0.3l0.2-0.4c0.5-0.1,0.7-0.6,0.9-1
		c0.7-1.1,0.8-2.7,0.8-4.1c0-2.1,0-3.8-0.5-5.8l-0.5-1.7l-0.6-2.7l-1-3.7c-0.8-2.4-1.6-4.7-2.5-7.2c-2.7-7.7-5.5-15.5-9-22.9
		c0.6,0,12-1.9,13-3.1c0.2-0.9,0-1.4-0.2-2c-0.2-0.6-0.6-1-1.1-1.3c-0.4-0.2-0.9-0.5-1.4-0.5c-0.3,0-0.3,0.1-0.5,0.1
		c-0.6-0.1-1.2-0.1-1.8,0c-2,0.3-5.8,0.8-7.6,1.6c-0.8,0.3-1.6,0.7-2.4,1l-3.8-7.6l-0.9-2.1l-1.1-2.2c3.5-1.8,6.8-3.7,10.5-5.2
		c0.2-0.1,0.9-0.3,1.3-0.4c1.2-0.5,2.3-0.9,3.5-1.3c0.8-0.5,6.8-3.3,6.4-4.6l-1.1,0.3c1.3-0.4,4-1.7,3.7-3c0,0,0-0.1,0-0.1
		C117.5,88.3,107.9,91.4,98.7,94.3z"/>
	<path class="st1" d="M178.2,118.2c3.5-1.8,5.4-2.6,9.1-3.2c0.1-0.2,0.1-0.4,0.2-0.6c0.6-0.6,1.3-1.2,2-1.7
		c-0.4-0.4-0.8-0.8-1.2-1.2c-1.6-1.1-4.6-0.9-6.5-0.8c-0.6,0-1.2,0.1-1.7,0.2c-3,0.5-5.9,1.4-8.5,2.8c-4.8,2.8-7.9,7.1-9.7,11.7
		c-0.1,0.4-0.3,0.8-0.4,1.1c-1.1,3.5-1.7,7-2,10.6c-2.1-4.1-4.3-8.2-6.6-12.3c-2.8-4.8-5.8-9.5-9.2-14c0.8,2.3,1.7,4.7,2.4,7.1
		c5.1,11.2,13.8,37.7,14.1,38.6c0.2,0.4,0.4,0.8,0.6,1.3c0.2,0.3,0.4,0.5,0.6,0.7c0.2,0.2,0.5,0.3,0.7,0.4c0.4,0.2,0.9,0.3,1.4,0.3
		c0.4,0,0.8-0.1,1.1-0.2C161,143.5,161.5,126.6,178.2,118.2z"/>
	<path class="st1" d="M132.4,113.1c0.1,0.8,0.2,1.5,0.2,2.2c2.5,6.3,2.4,13.5,3,20.2c0.2,2.7,0.6,5.3,1,7.9c0.6,3.6,2.3,8.6,5.2,11
		c0.4,0.3,1,0.8,1.5,0.9l1.1,0.3c0.6,0.1,0.7,0.2,1.3,0.2c0.1,0,0.9,0.1,0.9,0l0.1-0.1l0.3-0.2l0.2-0.3c0,0,0,0,0,0
		c-2.3-4.3-4-9-5.2-13.7C140.4,135.1,134.5,113.8,132.4,113.1z"/>
</g>
</svg>
