<?xml version="1.0" encoding="utf-8"?>
<!-- Generator: Adobe Illustrator 19.2.1, SVG Export Plug-In . SVG Version: 6.00 Build 0)  -->
<svg version="1.1" id="Layer_1" xmlns="http://www.w3.org/2000/svg" xmlns:xlink="http://www.w3.org/1999/xlink" x="0px" y="0px"
	 viewBox="0 0 48 48" style="enable-background:new 0 0 48 48;" xml:space="preserve">
<style type="text/css">
	.st0{stroke:#FFFFFF;stroke-width:2;stroke-miterlimit:10;}
	.st1{fill:#FFFFFF;}
	.st2{fill:none;}
</style>
<g>
	<path class="st0" d="M24,2.7C12.2,2.7,2.7,12.2,2.7,24S12.2,45.3,24,45.3S45.3,35.8,45.3,24S35.8,2.7,24,2.7z"/>
	<g>
		<g>
			<path class="st2" d="M19.2,17.3c-0.2,0.3-0.4,0.6-0.5,0.9c-0.1,0.4-0.1,0.7-0.1,1.1c0,0.4,0.1,0.7,0.2,1.1c0.1,0.4,0.3,0.7,0.5,1
				c0.2,0.3,0.5,0.5,0.9,0.7c0.7,0.3,1.8,0.3,2.4,0c0.3-0.1,0.6-0.3,0.8-0.6c0.2-0.3,0.4-0.6,0.4-1c0.1-0.4,0.1-0.9,0.1-1.4
				c0-0.4-0.1-0.7-0.2-1.1c-0.1-0.3-0.3-0.6-0.5-0.9c-0.2-0.2-0.5-0.4-0.8-0.6c-0.3-0.1-0.7-0.2-1.2-0.2c-0.6,0-1,0.1-1.4,0.3
				C19.7,16.8,19.4,17,19.2,17.3z"/>
			<path class="st2" d="M18.7,31.9c0.3,0.2,0.7,0.3,1,0.4c0.4,0.1,0.8,0.1,1.2,0.1c0.2,0,0.5,0,0.8,0c0.3,0,0.7-0.1,1-0.1
				c0.3-0.1,0.7-0.2,1-0.3c0.3-0.1,0.6-0.2,0.9-0.4c0.2-0.1,0.4-0.3,0.6-0.5c0.1-0.2,0.2-0.4,0.2-0.6c0-0.2-0.1-0.4-0.2-0.6
				c-0.2-0.2-0.4-0.4-0.6-0.5c-0.3-0.2-0.6-0.3-1-0.4c-0.4-0.1-1.1-0.3-2-0.5c-0.6-0.1-1.1-0.2-1.5-0.2c-0.4,0-0.7-0.1-0.9-0.1
				c-0.2,0-0.3,0-0.5,0c-0.3,0.3-0.5,0.7-0.7,1c-0.2,0.4-0.3,0.7-0.3,1c0,0.4,0.1,0.8,0.3,1.1C18.1,31.5,18.4,31.7,18.7,31.9z"/>
			<path class="st1" d="M27.4,16.9l1.1,0l0.3-2.3h-0.4c-0.6,0-1.2,0.1-1.8,0.2c-0.6,0.1-1.2,0.3-1.8,0.5c-0.5-0.3-1-0.5-1.6-0.7
				c-1.3-0.4-2.6-0.3-3.9,0.1c-0.7,0.2-1.3,0.5-1.8,0.9c-0.5,0.4-1,0.9-1.3,1.6c-0.3,0.6-0.5,1.4-0.5,2.2c0,1,0.2,1.8,0.6,2.5
				c0.3,0.5,0.7,0.9,1.1,1.3c-0.1,0-0.1,0-0.2,0.1c-0.3,0.1-0.6,0.3-0.9,0.5c-0.3,0.2-0.5,0.5-0.7,0.7c-0.2,0.3-0.3,0.6-0.3,1
				c0,0.3,0.1,0.6,0.2,0.9c0.1,0.2,0.3,0.4,0.5,0.6c0.2,0.2,0.4,0.3,0.6,0.5c0.1,0,0.1,0.1,0.2,0.1c-0.1,0.1-0.3,0.2-0.4,0.3
				c-0.3,0.3-0.5,0.5-0.7,0.8c-0.2,0.3-0.4,0.6-0.5,1c-0.1,0.3-0.2,0.7-0.2,1c0,0.6,0.1,1.2,0.4,1.7c0.3,0.5,0.7,0.9,1.2,1.2
				c0.5,0.3,1.1,0.5,1.8,0.7c0.7,0.1,1.4,0.2,2.2,0.2c0.5,0,1,0,1.6-0.1c0.5,0,1.1-0.1,1.6-0.2c0.5-0.1,1.1-0.3,1.6-0.5
				c0.5-0.2,1-0.5,1.3-0.8c0.4-0.3,0.7-0.7,1-1.2c0.2-0.5,0.4-1,0.4-1.6c0-0.7-0.2-1.2-0.5-1.7c-0.3-0.4-0.7-0.8-1.3-1.1
				c-0.5-0.3-1.1-0.5-1.7-0.7c-0.6-0.2-1.6-0.4-2.9-0.6c-1.2-0.2-2-0.3-2.5-0.4c-0.4-0.1-0.8-0.2-1.1-0.3c-0.1,0-0.2-0.1-0.2-0.2
				c0-0.1,0-0.2,0.1-0.3c0.1-0.1,0.3-0.3,0.4-0.4c0.2-0.1,0.4-0.2,0.5-0.3c0.2-0.1,0.3-0.1,0.4-0.1c1.4,0.3,2.6,0.3,3.8-0.1
				c0.7-0.2,1.2-0.5,1.8-0.9c0.5-0.4,0.9-0.9,1.2-1.6c0.3-0.6,0.5-1.4,0.5-2.2c0-0.6-0.1-1.1-0.2-1.5c-0.1-0.3-0.2-0.5-0.3-0.7
				c0.1,0,0.2,0,0.4-0.1C26.8,16.9,27.1,16.9,27.4,16.9z M21.4,16.4c0.4,0,0.8,0.1,1.2,0.2c0.3,0.1,0.6,0.3,0.8,0.6
				c0.2,0.2,0.4,0.5,0.5,0.9c0.1,0.3,0.2,0.7,0.2,1.1c0,0.5,0,1-0.1,1.4c-0.1,0.4-0.2,0.7-0.4,1c-0.2,0.3-0.5,0.5-0.8,0.6
				c-0.6,0.3-1.8,0.3-2.4,0c-0.4-0.2-0.6-0.4-0.9-0.7c-0.2-0.3-0.4-0.6-0.5-1c-0.1-0.4-0.2-0.7-0.2-1.1c0-0.4,0-0.7,0.1-1.1
				c0.1-0.3,0.2-0.7,0.5-0.9c0.2-0.3,0.5-0.5,0.8-0.7C20.4,16.5,20.8,16.4,21.4,16.4z M17.7,30.1c0-0.3,0.1-0.7,0.3-1
				c0.2-0.3,0.4-0.7,0.7-1c0.1,0,0.3,0,0.5,0c0.3,0,0.6,0,0.9,0.1c0.4,0,0.9,0.1,1.5,0.2c1,0.2,1.6,0.3,2,0.5c0.4,0.1,0.7,0.3,1,0.4
				c0.3,0.2,0.5,0.3,0.6,0.5c0.1,0.2,0.2,0.4,0.2,0.6c0,0.2-0.1,0.4-0.2,0.6c-0.1,0.2-0.3,0.4-0.6,0.5c-0.3,0.2-0.5,0.3-0.9,0.4
				c-0.3,0.1-0.7,0.2-1,0.3c-0.3,0.1-0.7,0.1-1,0.1c-0.3,0-0.6,0-0.8,0c-0.4,0-0.8,0-1.2-0.1c-0.4-0.1-0.7-0.2-1-0.4
				c-0.3-0.2-0.5-0.4-0.7-0.7C17.8,30.9,17.7,30.6,17.7,30.1z"/>
		</g>
		<g>
			<path class="st1" d="M33.3,16.2v2.5h2.4v0.6h-2.4v2.6h-0.7v-2.6h-2.4v-0.6h2.4v-2.5H33.3z"/>
		</g>
	</g>
</g>
</svg>
