<?xml version="1.0" encoding="utf-8"?>
<!-- Generator: Adobe Illustrator 19.2.1, SVG Export Plug-In . SVG Version: 6.00 Build 0)  -->
<svg version="1.1" id="Layer_1" xmlns="http://www.w3.org/2000/svg" xmlns:xlink="http://www.w3.org/1999/xlink" x="0px" y="0px"
	 viewBox="0 0 48 48" style="enable-background:new 0 0 48 48;" xml:space="preserve">
<style type="text/css">
	.st0{stroke:#FFFFFF;stroke-width:2;stroke-miterlimit:10;}
	.st1{fill:#FFFFFF;}
	.st2{fill:none;}
</style>
<g>
	<path class="st0" d="M24,2.7C12.2,2.7,2.7,12.2,2.7,24S12.2,45.3,24,45.3S45.3,35.8,45.3,24S35.8,2.7,24,2.7z"/>
	<g>
		<path class="st1" d="M33.5,30.6c0,1.6-1.3,2.9-2.9,2.9H17.4c-1.6,0-2.9-1.3-2.9-2.9V17.4c0-1.6,1.3-2.9,2.9-2.9h13.1
			c1.6,0,2.9,1.3,2.9,2.9L33.5,30.6L33.5,30.6z"/>
		<path d="M24.2,26.1c1.4,0,2.6-1.2,2.6-2.6s-1.2-2.6-2.6-2.6s-2.6,1.2-2.6,2.6S22.8,26.1,24.2,26.1z"/>
		<path d="M29.7,18.6c0.7,0,1.4-0.6,1.4-1.4c0-0.7-0.6-1.4-1.4-1.4c-0.7,0-1.4,0.6-1.4,1.4C28.3,18,28.9,18.6,29.7,18.6z"/>
		<path d="M29.3,23.5c0,2.8-2.3,5.1-5.1,5.1s-5.1-2.3-5.1-5.1c0-0.6,0.1-1.2,0.3-1.7h-2.4v6.9c0,1.2,1,2.1,2.1,2.1H29
			c1.2,0,2.1-1,2.1-2.1v-9.1h-3.6C28.6,20.6,29.3,22,29.3,23.5z"/>
	</g>
</g>
</svg>
