<?xml version="1.0" encoding="utf-8"?>
<!-- Generator: Adobe Illustrator 19.2.1, SVG Export Plug-In . SVG Version: 6.00 Build 0)  -->
<svg version="1.1" id="Layer_1" xmlns="http://www.w3.org/2000/svg" xmlns:xlink="http://www.w3.org/1999/xlink" x="0px" y="0px"
	 viewBox="0 0 48 48" style="enable-background:new 0 0 48 48;" xml:space="preserve">
<style type="text/css">
	.st0{stroke:#FFFFFF;stroke-width:2;stroke-miterlimit:10;}
	.st1{fill:#FFFFFF;}
	.st2{fill:none;}
</style>
<g>
	<path class="st0" d="M24,2.7C12.2,2.7,2.7,12.2,2.7,24S12.2,45.3,24,45.3S45.3,35.8,45.3,24S35.8,2.7,24,2.7z"/>
	<path class="st1" d="M14.8,30.1c1.9-0.1,3.7-0.5,5.4-1.8c-1.7-0.3-2.9-1-3.5-2.6c0.6,0,1-0.1,1.5-0.1c-1.7-0.7-2.7-1.9-2.8-3.8
		c0.5,0.1,1,0.3,1.5,0.4c-1.4-1.5-1.9-3.1-1-5.1c2.1,2.4,4.7,3.8,8,4c0-0.3,0-0.5,0-0.7c0-1.6,0.6-2.8,2-3.6
		c1.3-0.7,2.7-0.7,3.9,0.2c0.7,0.5,1.2,0.5,1.9,0.2c0.4-0.2,0.7-0.3,1.2-0.5c-0.3,0.8-0.8,1.4-1.4,2c0.6-0.1,1.1-0.3,1.7-0.4
		c0,0,0.1,0.1,0.1,0.1c-0.4,0.4-0.8,0.9-1.2,1.2c-0.4,0.4-0.6,0.8-0.6,1.3c0,1.8-0.5,3.5-1.4,5.1c-2.1,3.8-6.2,6-10.5,5.5
		c-1.4-0.2-2.8-0.5-4.1-1.2C15.2,30.3,15,30.2,14.8,30.1z"/>
</g>
</svg>
