<?xml version="1.0" encoding="utf-8"?>
<!-- Generator: Adobe Illustrator 19.2.1, SVG Export Plug-In . SVG Version: 6.00 Build 0)  -->
<svg version="1.1" id="Layer_1" xmlns="http://www.w3.org/2000/svg" xmlns:xlink="http://www.w3.org/1999/xlink" x="0px" y="0px"
	 viewBox="0 0 48 48" style="enable-background:new 0 0 48 48;" xml:space="preserve">
<style type="text/css">
	.st0{stroke:#FFFFFF;stroke-width:2;stroke-miterlimit:10;}
	.st1{fill:#FFFFFF;}
	.st2{fill:none;}
</style>
<g>
	<path class="st0" d="M24,2.7C12.2,2.7,2.7,12.2,2.7,24S12.2,45.3,24,45.3S45.3,35.8,45.3,24S35.8,2.7,24,2.7z"/>
	<path class="st1" d="M33.7,19.2c-0.2-1.1-1.1-1.8-2.2-2c-2.5-0.3-5-0.4-7.5-0.4c-2.5,0-5,0.2-7.5,0.4c-1,0.1-1.9,0.9-2.2,2
		C14,20.7,14,22.3,14,23.9c0,1.6,0,3.2,0.3,4.7c0.2,1.1,1.1,1.8,2.2,2c2.5,0.3,5,0.4,7.5,0.4c2.5,0,5-0.2,7.5-0.4
		c1-0.1,1.9-0.9,2.2-2c0.3-1.5,0.4-3.2,0.4-4.7C34,22.3,34,20.7,33.7,19.2 M27.4,24.4l-4.7,2.6c-0.5,0.3-0.9,0-0.9-0.5v-5
		c0-0.5,0.4-0.8,0.9-0.5l4.7,2.6C27.9,23.7,27.9,24.1,27.4,24.4"/>
</g>
</svg>
