<?xml version="1.0" encoding="utf-8"?>
<!-- Generator: Adobe Illustrator 19.2.1, SVG Export Plug-In . SVG Version: 6.00 Build 0)  -->
<svg version="1.1" id="Layer_1" xmlns="http://www.w3.org/2000/svg" xmlns:xlink="http://www.w3.org/1999/xlink" x="0px" y="0px"
	 viewBox="0 0 48 48" style="enable-background:new 0 0 48 48;" xml:space="preserve">
<style type="text/css">
	.st0{stroke:#FFFFFF;stroke-width:2;stroke-miterlimit:10;}
	.st1{fill:#FFFFFF;}
	.st2{fill:none;}
</style>
<g>
	<path class="st0" d="M24,2.7C12.2,2.7,2.7,12.2,2.7,24S12.2,45.3,24,45.3S45.3,35.8,45.3,24S35.8,2.7,24,2.7z"/>
	<g>
		<path class="st1" d="M30,17.1c-2.5-2.7-6.7-2.5-9.5-0.4c-2.4,1.8-4.1,5.7-2.1,8.4c0.4,0.5,1,0.9,1.7,1c0.2,0,0.3-0.1,0.4-0.2
			c0.1-0.4,0.3-0.7,0.3-1.1c0-0.1-0.1-0.2-0.2-0.2c-1.8-2-0.6-4.5,1.2-6c1.6-1.4,4.4-2.6,6.3-1.1c1.3,1.1,1.4,3.1,1.3,4.6
			c-0.1,1.9-0.7,3.9-2.7,4.5c-0.7,0.2-1.4,0.1-1.8-0.5c-0.5-0.6-0.3-1.4-0.1-2.1c0.3-1.1,1-2.7,0.3-3.8c-0.8-1.3-2.3-0.1-2.8,0.8
			c-0.3,0.5-0.8,2.3,0,2.7c-0.8,2-1.3,4.1-1.7,6.2c-0.2,0.9-0.3,2-0.1,2.9c0,0,0.2,0.8,0.4,1c0,0.2,0.2,0.2,0.3,0.1
			c0.7-1,1.4-1.9,1.8-3c0.2-0.6,0.3-1.3,0.4-1.9c0.1-0.4,0.3-0.9,0.3-1.4c0,0,0,0,0,0c0.6,0.5,1.4,0.9,2.2,1
			c1.2,0.2,2.5-0.2,3.5-0.9c0.1-0.1,0.3-0.2,0.4-0.4c0.4-0.3,0.8-0.7,1.2-1.1C32.9,23.6,32.2,19.5,30,17.1z"/>
	</g>
</g>
</svg>
