<?xml version="1.0" encoding="utf-8"?>
<!-- Generator: Adobe Illustrator 19.2.1, SVG Export Plug-In . SVG Version: 6.00 Build 0)  -->
<svg version="1.1" id="Layer_1" xmlns="http://www.w3.org/2000/svg" xmlns:xlink="http://www.w3.org/1999/xlink" x="0px" y="0px"
	 viewBox="0 0 48 48" style="enable-background:new 0 0 48 48;" xml:space="preserve">
<style type="text/css">
	.st0{stroke:#FFFFFF;stroke-width:2;stroke-miterlimit:10;}
	.st1{fill:#FFFFFF;}
	.st2{fill:none;}
</style>
<g>
	<path class="st0" d="M24,2.7C12.2,2.7,2.7,12.2,2.7,24S12.2,45.3,24,45.3S45.3,35.8,45.3,24S35.8,2.7,24,2.7z"/>
	<g>
		<path class="st1" d="M25.4,23.5v11.1h-3.6V23.5h-1.5v-2.7h1.5v-1.8c0-0.5,0.1-1,0.2-1.5c0.2-0.5,0.4-0.9,0.8-1.3
			c0.3-0.4,0.8-0.7,1.3-0.9c0.5-0.2,1.2-0.4,1.9-0.4h2v3h-1.4c-0.8,0-1.2,0.4-1.2,1.3v1.6H28v2.7H25.4z"/>
	</g>
</g>
</svg>
